<?xml version="1.0" encoding="UTF-8"?>
<svg xmlns="http://www.w3.org/2000/svg" xmlns:xlink="http://www.w3.org/1999/xlink" width="27pt" height="27pt" viewBox="0 0 27 27" version="1.1">
<g id="surface1">
<path style=" stroke:none;fill-rule:nonzero;fill:rgb(99.215686%,27.843137%,33.333333%);fill-opacity:1;" d="M 24.621094 6.621094 C 24.375 6.375 23.992188 6.320312 23.695312 6.5 C 22.800781 7.035156 21.625 6.914062 20.855469 6.144531 C 20.085938 5.375 19.964844 4.199219 20.5 3.304688 C 20.679688 3.007812 20.625 2.625 20.378906 2.378906 L 18.226562 0.226562 C 17.925781 -0.0742188 17.441406 -0.0742188 17.140625 0.226562 L 14.441406 2.925781 L 14.144531 3.589844 L 13.863281 3.5 L 0.226562 17.140625 C -0.0742188 17.441406 -0.0742188 17.925781 0.226562 18.226562 L 2.378906 20.378906 C 2.625 20.625 3.007812 20.679688 3.304688 20.5 C 4.199219 19.964844 5.375 20.085938 6.144531 20.855469 C 6.914062 21.625 7.035156 22.800781 6.5 23.695312 C 6.320312 23.992188 6.375 24.375 6.621094 24.621094 L 8.773438 26.773438 C 9.074219 27.074219 9.558594 27.074219 9.859375 26.773438 L 23.5 13.136719 L 23.703125 12.5625 L 24.074219 12.558594 L 26.773438 9.859375 C 27.074219 9.558594 27.074219 9.074219 26.773438 8.773438 Z M 24.621094 6.621094 "/>
<path style=" stroke:none;fill-rule:nonzero;fill:rgb(98.431373%,16.862745%,22.745098%);fill-opacity:1;" d="M 26.773438 8.773438 L 25.144531 7.144531 C 25.445312 7.445312 25.445312 7.929688 25.144531 8.230469 L 8.230469 25.144531 C 7.929688 25.445312 7.445312 25.445312 7.144531 25.144531 L 8.773438 26.773438 C 9.074219 27.074219 9.558594 27.074219 9.859375 26.773438 L 23.5 13.136719 L 23.433594 12.464844 L 24.074219 12.558594 L 26.773438 9.859375 C 27.074219 9.558594 27.074219 9.074219 26.773438 8.773438 Z M 26.773438 8.773438 "/>
<path style=" stroke:none;fill-rule:nonzero;fill:rgb(99.215686%,70.588235%,72.941176%);fill-opacity:1;" d="M 13.863281 3.5 L 14.152344 3.789062 C 14.230469 3.867188 14.335938 3.910156 14.441406 3.910156 C 14.542969 3.910156 14.648438 3.867188 14.726562 3.789062 C 14.886719 3.628906 14.886719 3.371094 14.726562 3.214844 L 14.441406 2.925781 Z M 13.863281 3.5 "/>
<path style=" stroke:none;fill-rule:nonzero;fill:rgb(99.215686%,70.588235%,72.941176%);fill-opacity:1;" d="M 22.433594 11.902344 C 22.328125 11.902344 22.222656 11.863281 22.144531 11.78125 L 21.613281 11.25 C 21.453125 11.089844 21.453125 10.832031 21.613281 10.671875 C 21.769531 10.515625 22.027344 10.515625 22.1875 10.671875 L 22.722656 11.207031 C 22.878906 11.363281 22.878906 11.625 22.722656 11.78125 C 22.640625 11.863281 22.539062 11.902344 22.433594 11.902344 Z M 22.433594 11.902344 "/>
<path style=" stroke:none;fill-rule:nonzero;fill:rgb(99.607843%,60%,62.745098%);fill-opacity:1;" d="M 22.144531 11.78125 C 22.222656 11.863281 22.328125 11.902344 22.433594 11.902344 C 22.539062 11.902344 22.640625 11.863281 22.722656 11.78125 C 22.878906 11.625 22.878906 11.367188 22.722656 11.207031 L 22.445312 10.929688 L 21.867188 11.507812 Z M 22.144531 11.78125 "/>
<path style=" stroke:none;fill-rule:nonzero;fill:rgb(99.215686%,70.588235%,72.941176%);fill-opacity:1;" d="M 20.835938 10.304688 C 20.730469 10.304688 20.625 10.261719 20.546875 10.183594 L 20.011719 9.652344 C 19.855469 9.492188 19.855469 9.234375 20.011719 9.074219 C 20.171875 8.914062 20.429688 8.914062 20.589844 9.074219 L 21.121094 9.609375 C 21.28125 9.765625 21.28125 10.023438 21.121094 10.183594 C 21.042969 10.261719 20.9375 10.304688 20.835938 10.304688 Z M 20.835938 10.304688 "/>
<path style=" stroke:none;fill-rule:nonzero;fill:rgb(99.215686%,70.588235%,72.941176%);fill-opacity:1;" d="M 19.234375 8.703125 C 19.132812 8.703125 19.027344 8.664062 18.949219 8.585938 L 18.414062 8.050781 C 18.253906 7.894531 18.253906 7.636719 18.414062 7.476562 C 18.574219 7.316406 18.832031 7.316406 18.992188 7.476562 L 19.523438 8.007812 C 19.683594 8.167969 19.683594 8.425781 19.523438 8.585938 C 19.445312 8.664062 19.339844 8.703125 19.234375 8.703125 Z M 19.234375 8.703125 "/>
<path style=" stroke:none;fill-rule:nonzero;fill:rgb(99.215686%,70.588235%,72.941176%);fill-opacity:1;" d="M 17.636719 7.105469 C 17.53125 7.105469 17.429688 7.066406 17.347656 6.988281 L 16.816406 6.453125 C 16.65625 6.292969 16.65625 6.035156 16.816406 5.878906 C 16.976562 5.71875 17.234375 5.71875 17.390625 5.878906 L 17.925781 6.410156 C 18.085938 6.570312 18.085938 6.828125 17.925781 6.988281 C 17.847656 7.066406 17.742188 7.105469 17.636719 7.105469 Z M 17.636719 7.105469 "/>
<path style=" stroke:none;fill-rule:nonzero;fill:rgb(99.215686%,70.588235%,72.941176%);fill-opacity:1;" d="M 16.039062 5.507812 C 15.933594 5.507812 15.828125 5.46875 15.75 5.386719 L 15.21875 4.855469 C 15.058594 4.695312 15.058594 4.4375 15.21875 4.277344 C 15.375 4.121094 15.632812 4.121094 15.792969 4.277344 L 16.328125 4.8125 C 16.484375 4.972656 16.484375 5.230469 16.328125 5.386719 C 16.246094 5.46875 16.144531 5.507812 16.039062 5.507812 Z M 16.039062 5.507812 "/>
<path style=" stroke:none;fill-rule:nonzero;fill:rgb(99.607843%,60%,62.745098%);fill-opacity:1;" d="M 23.785156 12.273438 C 23.628906 12.113281 23.371094 12.113281 23.210938 12.273438 C 23.050781 12.429688 23.050781 12.6875 23.210938 12.847656 L 23.5 13.136719 L 24.074219 12.558594 Z M 23.785156 12.273438 "/>
<path style=" stroke:none;fill-rule:nonzero;fill:rgb(99.215686%,70.588235%,72.941176%);fill-opacity:1;" d="M 12.300781 22.695312 C 12.199219 22.695312 12.09375 22.65625 12.015625 22.578125 L 4.421875 14.984375 C 4.261719 14.828125 4.261719 14.570312 4.421875 14.410156 C 4.582031 14.25 4.839844 14.25 5 14.410156 L 12.589844 22 C 12.75 22.160156 12.75 22.417969 12.589844 22.578125 C 12.511719 22.65625 12.40625 22.695312 12.300781 22.695312 Z M 12.300781 22.695312 "/>
<path style=" stroke:none;fill-rule:nonzero;fill:rgb(99.607843%,60%,62.745098%);fill-opacity:1;" d="M 12.015625 22.578125 C 12.09375 22.65625 12.199219 22.695312 12.300781 22.695312 C 12.40625 22.695312 12.511719 22.65625 12.589844 22.578125 C 12.75 22.417969 12.75 22.160156 12.589844 22 L 11.980469 21.394531 L 11.40625 21.96875 Z M 12.015625 22.578125 "/>
<path style=" stroke:none;fill-rule:nonzero;fill:rgb(99.215686%,70.588235%,72.941176%);fill-opacity:1;" d="M 11.214844 23.785156 C 11.109375 23.785156 11.007812 23.742188 10.925781 23.664062 L 3.335938 16.074219 C 3.175781 15.914062 3.175781 15.65625 3.335938 15.496094 C 3.496094 15.335938 3.753906 15.335938 3.914062 15.496094 L 11.503906 23.085938 C 11.664062 23.246094 11.664062 23.503906 11.503906 23.664062 C 11.425781 23.742188 11.320312 23.785156 11.214844 23.785156 Z M 11.214844 23.785156 "/>
<path style=" stroke:none;fill-rule:nonzero;fill:rgb(99.607843%,60%,62.745098%);fill-opacity:1;" d="M 10.925781 23.664062 C 11.007812 23.742188 11.109375 23.785156 11.214844 23.785156 C 11.320312 23.785156 11.425781 23.742188 11.503906 23.664062 C 11.664062 23.503906 11.664062 23.246094 11.503906 23.085938 L 10.894531 22.480469 L 10.320312 23.054688 Z M 10.925781 23.664062 "/>
<path style=" stroke:none;fill-rule:nonzero;fill:rgb(97.647059%,96.862745%,97.254902%);fill-opacity:1;" d="M 18.867188 13.5 C 18.867188 14.667969 18.492188 15.75 17.859375 16.628906 C 17.488281 17.148438 17.023438 17.226562 16.496094 17.585938 C 16.078125 17.867188 15.617188 18.460938 15.128906 18.617188 C 14.617188 18.777344 14.066406 18.867188 13.5 18.867188 C 12.945312 18.867188 12.410156 18.78125 11.90625 18.625 C 11.222656 18.414062 10.601562 17.699219 10.066406 17.253906 C 9.71875 16.964844 9.40625 17 9.140625 16.628906 C 8.507812 15.75 8.132812 14.667969 8.132812 13.5 C 8.132812 12.6875 8.683594 12.285156 9.007812 11.597656 C 9.15625 11.277344 8.964844 10.609375 9.171875 10.328125 C 9.824219 9.4375 10.742188 8.757812 11.8125 8.402344 C 12.34375 8.226562 12.910156 8.503906 13.5 8.503906 C 14.089844 8.503906 14.65625 8.226562 15.1875 8.402344 C 16.253906 8.757812 17.171875 9.433594 17.824219 10.320312 C 18.152344 10.765625 18.042969 11.261719 18.222656 11.796875 C 18.398438 12.332031 18.867188 12.90625 18.867188 13.5 Z M 18.867188 13.5 "/>
<path style=" stroke:none;fill-rule:nonzero;fill:rgb(89.803922%,88.235294%,89.803922%);fill-opacity:1;" d="M 15.097656 8.375 C 16.449219 9.347656 17.328125 10.9375 17.328125 12.730469 C 17.328125 15.695312 14.925781 18.097656 11.964844 18.097656 C 11.40625 18.097656 10.871094 18.015625 10.367188 17.855469 C 10.640625 18.054688 10.933594 17.855469 11.242188 18 C 11.429688 18.089844 11.625 18.535156 11.824219 18.601562 C 12.351562 18.773438 12.914062 18.867188 13.5 18.867188 C 14.066406 18.867188 14.617188 18.777344 15.128906 18.613281 C 15.59375 18.46875 16.03125 17.886719 16.429688 17.628906 C 16.988281 17.261719 17.472656 17.167969 17.859375 16.628906 C 18.492188 15.75 18.867188 14.667969 18.867188 13.5 C 18.867188 12.839844 18.378906 12.210938 18.160156 11.625 C 17.984375 11.15625 18.117188 10.71875 17.824219 10.320312 C 17.152344 9.410156 16.203125 8.71875 15.097656 8.375 Z M 15.097656 8.375 "/>
<path style=" stroke:none;fill-rule:nonzero;fill:rgb(70.980392%,67.843137%,71.372549%);fill-opacity:1;" d="M 13.5 12.722656 C 13.289062 12.722656 13.117188 12.546875 13.117188 12.335938 L 13.117188 9.132812 C 13.117188 8.921875 13.289062 8.75 13.5 8.75 C 13.710938 8.75 13.882812 8.921875 13.882812 9.132812 L 13.882812 12.335938 C 13.882812 12.546875 13.710938 12.722656 13.5 12.722656 Z M 13.5 12.722656 "/>
<path style=" stroke:none;fill-rule:nonzero;fill:rgb(70.980392%,67.843137%,71.372549%);fill-opacity:1;" d="M 16.046875 17.332031 C 15.9375 17.332031 15.832031 17.289062 15.753906 17.199219 L 14.105469 15.269531 C 13.96875 15.109375 13.988281 14.867188 14.148438 14.730469 C 14.308594 14.59375 14.550781 14.609375 14.691406 14.773438 L 16.339844 16.699219 C 16.476562 16.859375 16.457031 17.105469 16.296875 17.242188 C 16.222656 17.304688 16.136719 17.332031 16.046875 17.332031 Z M 16.046875 17.332031 "/>
<path style=" stroke:none;fill-rule:nonzero;fill:rgb(70.980392%,67.843137%,71.372549%);fill-opacity:1;" d="M 10.996094 17.28125 C 10.910156 17.28125 10.820312 17.25 10.75 17.191406 C 10.585938 17.050781 10.566406 16.808594 10.707031 16.648438 L 12.402344 14.664062 C 12.539062 14.503906 12.78125 14.484375 12.945312 14.621094 C 13.105469 14.757812 13.125 15 12.984375 15.164062 L 11.289062 17.148438 C 11.214844 17.234375 11.105469 17.28125 10.996094 17.28125 Z M 10.996094 17.28125 "/>
<path style=" stroke:none;fill-rule:nonzero;fill:rgb(70.980392%,67.843137%,71.372549%);fill-opacity:1;" d="M 15.128906 13.617188 C 14.984375 13.617188 14.84375 13.53125 14.777344 13.390625 C 14.691406 13.199219 14.777344 12.96875 14.96875 12.882812 L 17.410156 11.777344 C 17.605469 11.691406 17.832031 11.777344 17.917969 11.96875 C 18.007812 12.164062 17.921875 12.390625 17.726562 12.476562 L 15.289062 13.582031 C 15.234375 13.605469 15.183594 13.617188 15.128906 13.617188 Z M 15.128906 13.617188 "/>
<path style=" stroke:none;fill-rule:nonzero;fill:rgb(70.980392%,67.843137%,71.372549%);fill-opacity:1;" d="M 12.074219 13.707031 C 12.019531 13.707031 11.964844 13.699219 11.914062 13.675781 L 9.285156 12.484375 C 9.09375 12.398438 9.007812 12.167969 9.09375 11.976562 C 9.183594 11.78125 9.410156 11.695312 9.605469 11.785156 L 12.230469 12.972656 C 12.425781 13.0625 12.511719 13.289062 12.421875 13.484375 C 12.359375 13.625 12.21875 13.707031 12.074219 13.707031 Z M 12.074219 13.707031 "/>
<path style=" stroke:none;fill-rule:nonzero;fill:rgb(47.843137%,42.745098%,47.45098%);fill-opacity:1;" d="M 15.1875 8.402344 L 13.679688 9.5 C 13.574219 9.578125 13.425781 9.578125 13.320312 9.5 L 11.8125 8.402344 C 12.199219 8.277344 12.78125 8.132812 13.5 8.132812 C 13.90625 8.132812 14.503906 8.179688 15.1875 8.402344 Z M 15.1875 8.402344 "/>
<path style=" stroke:none;fill-rule:nonzero;fill:rgb(47.843137%,42.745098%,47.45098%);fill-opacity:1;" d="M 9.175781 10.320312 L 9.75 12.09375 C 9.792969 12.21875 9.746094 12.355469 9.640625 12.433594 L 8.132812 13.53125 C 8.132812 13.105469 8.179688 12.46875 8.429688 11.742188 C 8.644531 11.117188 8.941406 10.640625 9.175781 10.320312 Z M 9.175781 10.320312 "/>
<path style=" stroke:none;fill-rule:nonzero;fill:rgb(47.843137%,42.745098%,47.45098%);fill-opacity:1;" d="M 9.140625 16.628906 L 11.003906 16.628906 C 11.136719 16.628906 11.253906 16.714844 11.296875 16.84375 L 11.871094 18.617188 C 11.464844 18.484375 10.875 18.242188 10.265625 17.785156 C 9.734375 17.382812 9.371094 16.953125 9.140625 16.628906 Z M 9.140625 16.628906 "/>
<path style=" stroke:none;fill-rule:nonzero;fill:rgb(40.784314%,36.862745%,40.784314%);fill-opacity:1;" d="M 11.699219 18.089844 C 11.238281 18.070312 10.792969 17.988281 10.367188 17.855469 C 10.613281 18.003906 10.84375 18.257812 11.871094 18.613281 Z M 11.699219 18.089844 "/>
<path style=" stroke:none;fill-rule:nonzero;fill:rgb(40.784314%,36.862745%,40.784314%);fill-opacity:1;" d="M 15.128906 18.617188 L 15.703125 16.84375 C 15.746094 16.714844 15.863281 16.628906 15.996094 16.628906 L 17.859375 16.628906 C 17.636719 16.941406 17.300781 17.339844 16.824219 17.714844 C 16.183594 18.21875 15.554688 18.476562 15.128906 18.617188 Z M 15.128906 18.617188 "/>
<path style=" stroke:none;fill-rule:nonzero;fill:rgb(40.784314%,36.862745%,40.784314%);fill-opacity:1;" d="M 18.867188 13.53125 L 17.359375 12.433594 C 17.253906 12.355469 17.207031 12.21875 17.25 12.09375 L 17.824219 10.320312 C 18.0625 10.644531 18.371094 11.140625 18.59375 11.804688 C 18.824219 12.503906 18.871094 13.117188 18.867188 13.53125 Z M 18.867188 13.53125 "/>
<path style=" stroke:none;fill-rule:nonzero;fill:rgb(47.843137%,42.745098%,47.45098%);fill-opacity:1;" d="M 13.320312 11.671875 L 11.621094 12.90625 C 11.511719 12.984375 11.46875 13.121094 11.507812 13.25 L 12.15625 15.25 C 12.199219 15.375 12.316406 15.460938 12.449219 15.460938 L 14.550781 15.460938 C 14.683594 15.460938 14.800781 15.375 14.84375 15.25 L 15.492188 13.25 C 15.53125 13.121094 15.488281 12.984375 15.378906 12.90625 L 13.679688 11.671875 C 13.574219 11.59375 13.425781 11.59375 13.320312 11.671875 Z M 13.320312 11.671875 "/>
</g>
</svg>
